G04 (created by PCBNEW (2013-07-07 BZR 4022)-stable) date 11/12/2014 2:51:25 PM*
%MOIN*%
G04 Gerber Fmt 3.4, Leading zero omitted, Abs format*
%FSLAX34Y34*%
G01*
G70*
G90*
G04 APERTURE LIST*
%ADD10C,0.00590551*%
%ADD11R,0.055X0.055*%
%ADD12C,0.055*%
G04 APERTURE END LIST*
G54D10*
G54D11*
X84000Y-44000D03*
G54D12*
X84000Y-45000D03*
X84000Y-46000D03*
X84000Y-47000D03*
X84000Y-48000D03*
X84000Y-49000D03*
X84000Y-50000D03*
G54D11*
X96500Y-39500D03*
G54D12*
X96500Y-40500D03*
X96500Y-41500D03*
X96500Y-42500D03*
X96500Y-43500D03*
X96500Y-44500D03*
X96500Y-45500D03*
X96500Y-46500D03*
X96500Y-47500D03*
X96500Y-48500D03*
X96500Y-49500D03*
X96500Y-50500D03*
X96500Y-51500D03*
X96500Y-52500D03*
X96500Y-53500D03*
X96500Y-54500D03*
X102500Y-54500D03*
X102500Y-53500D03*
X102500Y-52500D03*
X102500Y-51500D03*
X102500Y-50500D03*
X102500Y-49500D03*
X102500Y-48500D03*
X102500Y-47500D03*
X102500Y-46500D03*
X102500Y-45500D03*
X102500Y-44500D03*
X102500Y-43500D03*
X102500Y-42500D03*
X102500Y-41500D03*
X102500Y-40500D03*
X102500Y-39500D03*
G54D11*
X105500Y-41500D03*
G54D12*
X105500Y-42500D03*
X105500Y-43500D03*
X105500Y-44500D03*
X105500Y-45500D03*
X105500Y-46500D03*
X105500Y-47500D03*
X105500Y-48500D03*
X105500Y-49500D03*
X105500Y-50500D03*
X105500Y-51500D03*
X105500Y-52500D03*
X105500Y-53500D03*
X105500Y-54500D03*
X111500Y-54500D03*
X111500Y-53500D03*
X111500Y-52500D03*
X111500Y-51500D03*
X111500Y-50500D03*
X111500Y-49500D03*
X111500Y-48500D03*
X111500Y-47500D03*
X111500Y-46500D03*
X111500Y-45500D03*
X111500Y-44500D03*
X111500Y-43500D03*
X111500Y-42500D03*
X111500Y-41500D03*
G54D11*
X104000Y-41500D03*
G54D12*
X104000Y-42500D03*
X104000Y-43500D03*
X104000Y-44500D03*
X104000Y-45500D03*
X104000Y-46500D03*
X104000Y-47500D03*
X104000Y-48500D03*
X104000Y-49500D03*
X104000Y-50500D03*
X104000Y-51500D03*
X104000Y-52500D03*
X104000Y-53500D03*
X104000Y-54500D03*
X110000Y-54500D03*
X110000Y-53500D03*
X110000Y-52500D03*
X110000Y-51500D03*
X110000Y-50500D03*
X110000Y-49500D03*
X110000Y-48500D03*
X110000Y-47500D03*
X110000Y-46500D03*
X110000Y-45500D03*
X110000Y-44500D03*
X110000Y-43500D03*
X110000Y-42500D03*
X110000Y-41500D03*
G54D11*
X86000Y-48000D03*
G54D12*
X86000Y-49000D03*
X86000Y-50000D03*
X86000Y-51000D03*
X86000Y-52000D03*
X86000Y-53000D03*
X86000Y-54000D03*
X86000Y-55000D03*
X89000Y-55000D03*
X89000Y-54000D03*
X89000Y-53000D03*
X89000Y-52000D03*
X89000Y-51000D03*
X89000Y-50000D03*
X89000Y-49000D03*
X89000Y-48000D03*
G54D11*
X86000Y-39500D03*
G54D12*
X86000Y-40500D03*
X86000Y-41500D03*
X86000Y-42500D03*
X86000Y-43500D03*
X86000Y-44500D03*
X86000Y-45500D03*
X89000Y-45500D03*
X89000Y-44500D03*
X89000Y-43500D03*
X89000Y-42500D03*
X89000Y-41500D03*
X89000Y-40500D03*
X89000Y-39500D03*
G54D11*
X92000Y-39500D03*
G54D12*
X92000Y-40500D03*
X92000Y-41500D03*
X92000Y-42500D03*
X92000Y-43500D03*
X92000Y-44500D03*
X92000Y-45500D03*
X92000Y-46500D03*
X92000Y-47500D03*
X92000Y-48500D03*
X92000Y-49500D03*
X92000Y-50500D03*
X92000Y-51500D03*
X92000Y-52500D03*
X92000Y-53500D03*
X92000Y-54500D03*
X95000Y-54500D03*
X95000Y-53500D03*
X95000Y-52500D03*
X95000Y-51500D03*
X95000Y-50500D03*
X95000Y-49500D03*
X95000Y-48500D03*
X95000Y-47500D03*
X95000Y-46500D03*
X95000Y-45500D03*
X95000Y-44500D03*
X95000Y-43500D03*
X95000Y-42500D03*
X95000Y-41500D03*
X95000Y-40500D03*
X95000Y-39500D03*
M02*
