G04 (created by PCBNEW (2013-07-07 BZR 4022)-stable) date 11/12/2014 2:51:25 PM*
%MOIN*%
G04 Gerber Fmt 3.4, Leading zero omitted, Abs format*
%FSLAX34Y34*%
G01*
G70*
G90*
G04 APERTURE LIST*
%ADD10C,0.00590551*%
%ADD11C,0.011811*%
%ADD12R,0.055X0.055*%
%ADD13C,0.055*%
%ADD14C,0.02*%
G04 APERTURE END LIST*
G54D10*
G54D11*
X103456Y-40070D02*
X103737Y-40070D01*
X103400Y-40239D02*
X103597Y-39648D01*
X103794Y-40239D01*
X104384Y-39648D02*
X104525Y-40239D01*
X104637Y-39817D01*
X104750Y-40239D01*
X104890Y-39648D01*
X105115Y-40239D02*
X105115Y-39845D01*
X105115Y-39648D02*
X105087Y-39676D01*
X105115Y-39704D01*
X105143Y-39676D01*
X105115Y-39648D01*
X105115Y-39704D01*
X105481Y-40239D02*
X105425Y-40210D01*
X105397Y-40154D01*
X105397Y-39648D01*
X105790Y-40239D02*
X105734Y-40210D01*
X105706Y-40154D01*
X105706Y-39648D01*
X106015Y-40239D02*
X106015Y-39845D01*
X106015Y-39648D02*
X105987Y-39676D01*
X106015Y-39704D01*
X106043Y-39676D01*
X106015Y-39648D01*
X106015Y-39704D01*
X106550Y-40239D02*
X106550Y-39929D01*
X106521Y-39873D01*
X106465Y-39845D01*
X106353Y-39845D01*
X106296Y-39873D01*
X106550Y-40210D02*
X106493Y-40239D01*
X106353Y-40239D01*
X106296Y-40210D01*
X106268Y-40154D01*
X106268Y-40098D01*
X106296Y-40042D01*
X106353Y-40014D01*
X106493Y-40014D01*
X106550Y-39985D01*
X106831Y-40239D02*
X106831Y-39845D01*
X106831Y-39901D02*
X106859Y-39873D01*
X106915Y-39845D01*
X107000Y-39845D01*
X107056Y-39873D01*
X107084Y-39929D01*
X107084Y-40239D01*
X107084Y-39929D02*
X107112Y-39873D01*
X107168Y-39845D01*
X107253Y-39845D01*
X107309Y-39873D01*
X107337Y-39929D01*
X107337Y-40239D01*
X107590Y-40210D02*
X107646Y-40239D01*
X107759Y-40239D01*
X107815Y-40210D01*
X107843Y-40154D01*
X107843Y-40126D01*
X107815Y-40070D01*
X107759Y-40042D01*
X107674Y-40042D01*
X107618Y-40014D01*
X107590Y-39957D01*
X107590Y-39929D01*
X107618Y-39873D01*
X107674Y-39845D01*
X107759Y-39845D01*
X107815Y-39873D01*
X108518Y-39704D02*
X108546Y-39676D01*
X108602Y-39648D01*
X108743Y-39648D01*
X108799Y-39676D01*
X108827Y-39704D01*
X108856Y-39760D01*
X108856Y-39817D01*
X108827Y-39901D01*
X108490Y-40239D01*
X108856Y-40239D01*
X109221Y-39648D02*
X109277Y-39648D01*
X109334Y-39676D01*
X109362Y-39704D01*
X109390Y-39760D01*
X109418Y-39873D01*
X109418Y-40014D01*
X109390Y-40126D01*
X109362Y-40182D01*
X109334Y-40210D01*
X109277Y-40239D01*
X109221Y-40239D01*
X109165Y-40210D01*
X109137Y-40182D01*
X109109Y-40126D01*
X109080Y-40014D01*
X109080Y-39873D01*
X109109Y-39760D01*
X109137Y-39704D01*
X109165Y-39676D01*
X109221Y-39648D01*
X109980Y-40239D02*
X109643Y-40239D01*
X109812Y-40239D02*
X109812Y-39648D01*
X109755Y-39732D01*
X109699Y-39789D01*
X109643Y-39817D01*
X110487Y-39845D02*
X110487Y-40239D01*
X110346Y-39620D02*
X110205Y-40042D01*
X110571Y-40042D01*
X103400Y-38929D02*
X103484Y-38957D01*
X103512Y-38985D01*
X103541Y-39042D01*
X103541Y-39126D01*
X103512Y-39182D01*
X103484Y-39210D01*
X103428Y-39239D01*
X103203Y-39239D01*
X103203Y-38648D01*
X103400Y-38648D01*
X103456Y-38676D01*
X103484Y-38704D01*
X103512Y-38760D01*
X103512Y-38817D01*
X103484Y-38873D01*
X103456Y-38901D01*
X103400Y-38929D01*
X103203Y-38929D01*
X103794Y-38929D02*
X103991Y-38929D01*
X104075Y-39239D02*
X103794Y-39239D01*
X103794Y-38648D01*
X104075Y-38648D01*
X104328Y-38929D02*
X104525Y-38929D01*
X104609Y-39239D02*
X104328Y-39239D01*
X104328Y-38648D01*
X104609Y-38648D01*
X105059Y-38929D02*
X105143Y-38957D01*
X105172Y-38985D01*
X105200Y-39042D01*
X105200Y-39126D01*
X105172Y-39182D01*
X105143Y-39210D01*
X105087Y-39239D01*
X104862Y-39239D01*
X104862Y-38648D01*
X105059Y-38648D01*
X105115Y-38676D01*
X105143Y-38704D01*
X105172Y-38760D01*
X105172Y-38817D01*
X105143Y-38873D01*
X105115Y-38901D01*
X105059Y-38929D01*
X104862Y-38929D01*
X106240Y-39239D02*
X106043Y-38957D01*
X105903Y-39239D02*
X105903Y-38648D01*
X106128Y-38648D01*
X106184Y-38676D01*
X106212Y-38704D01*
X106240Y-38760D01*
X106240Y-38845D01*
X106212Y-38901D01*
X106184Y-38929D01*
X106128Y-38957D01*
X105903Y-38957D01*
X106465Y-39070D02*
X106746Y-39070D01*
X106409Y-39239D02*
X106606Y-38648D01*
X106803Y-39239D01*
X107000Y-39239D02*
X107000Y-38648D01*
X107196Y-39070D01*
X107393Y-38648D01*
X107393Y-39239D01*
X107674Y-39014D02*
X108124Y-39014D01*
X107899Y-39239D02*
X107899Y-38789D01*
X108602Y-38929D02*
X108406Y-38929D01*
X108406Y-39239D02*
X108406Y-38648D01*
X108687Y-38648D01*
X109193Y-39239D02*
X108912Y-39239D01*
X108912Y-38648D01*
X109362Y-39070D02*
X109643Y-39070D01*
X109305Y-39239D02*
X109502Y-38648D01*
X109699Y-39239D01*
X109868Y-39210D02*
X109952Y-39239D01*
X110093Y-39239D01*
X110149Y-39210D01*
X110177Y-39182D01*
X110205Y-39126D01*
X110205Y-39070D01*
X110177Y-39014D01*
X110149Y-38985D01*
X110093Y-38957D01*
X109980Y-38929D01*
X109924Y-38901D01*
X109896Y-38873D01*
X109868Y-38817D01*
X109868Y-38760D01*
X109896Y-38704D01*
X109924Y-38676D01*
X109980Y-38648D01*
X110121Y-38648D01*
X110205Y-38676D01*
X110458Y-39239D02*
X110458Y-38648D01*
X110458Y-38929D02*
X110796Y-38929D01*
X110796Y-39239D02*
X110796Y-38648D01*
X104364Y-55932D02*
X104336Y-55960D01*
X104251Y-55989D01*
X104195Y-55989D01*
X104111Y-55960D01*
X104055Y-55904D01*
X104026Y-55848D01*
X103998Y-55735D01*
X103998Y-55651D01*
X104026Y-55539D01*
X104055Y-55482D01*
X104111Y-55426D01*
X104195Y-55398D01*
X104251Y-55398D01*
X104336Y-55426D01*
X104364Y-55454D01*
X104701Y-55989D02*
X104645Y-55960D01*
X104617Y-55932D01*
X104589Y-55876D01*
X104589Y-55707D01*
X104617Y-55651D01*
X104645Y-55623D01*
X104701Y-55595D01*
X104786Y-55595D01*
X104842Y-55623D01*
X104870Y-55651D01*
X104898Y-55707D01*
X104898Y-55876D01*
X104870Y-55932D01*
X104842Y-55960D01*
X104786Y-55989D01*
X104701Y-55989D01*
X105151Y-55989D02*
X105151Y-55595D01*
X105151Y-55651D02*
X105179Y-55623D01*
X105236Y-55595D01*
X105320Y-55595D01*
X105376Y-55623D01*
X105404Y-55679D01*
X105404Y-55989D01*
X105404Y-55679D02*
X105433Y-55623D01*
X105489Y-55595D01*
X105573Y-55595D01*
X105629Y-55623D01*
X105658Y-55679D01*
X105658Y-55989D01*
X105939Y-55595D02*
X105939Y-56185D01*
X105939Y-55623D02*
X105995Y-55595D01*
X106107Y-55595D01*
X106164Y-55623D01*
X106192Y-55651D01*
X106220Y-55707D01*
X106220Y-55876D01*
X106192Y-55932D01*
X106164Y-55960D01*
X106107Y-55989D01*
X105995Y-55989D01*
X105939Y-55960D01*
X106557Y-55989D02*
X106501Y-55960D01*
X106473Y-55932D01*
X106445Y-55876D01*
X106445Y-55707D01*
X106473Y-55651D01*
X106501Y-55623D01*
X106557Y-55595D01*
X106642Y-55595D01*
X106698Y-55623D01*
X106726Y-55651D01*
X106754Y-55707D01*
X106754Y-55876D01*
X106726Y-55932D01*
X106698Y-55960D01*
X106642Y-55989D01*
X106557Y-55989D01*
X107007Y-55595D02*
X107007Y-55989D01*
X107007Y-55651D02*
X107035Y-55623D01*
X107092Y-55595D01*
X107176Y-55595D01*
X107232Y-55623D01*
X107260Y-55679D01*
X107260Y-55989D01*
X107767Y-55960D02*
X107710Y-55989D01*
X107598Y-55989D01*
X107542Y-55960D01*
X107514Y-55904D01*
X107514Y-55679D01*
X107542Y-55623D01*
X107598Y-55595D01*
X107710Y-55595D01*
X107767Y-55623D01*
X107795Y-55679D01*
X107795Y-55735D01*
X107514Y-55792D01*
X108048Y-55595D02*
X108048Y-55989D01*
X108048Y-55651D02*
X108076Y-55623D01*
X108132Y-55595D01*
X108217Y-55595D01*
X108273Y-55623D01*
X108301Y-55679D01*
X108301Y-55989D01*
X108498Y-55595D02*
X108723Y-55595D01*
X108582Y-55398D02*
X108582Y-55904D01*
X108610Y-55960D01*
X108667Y-55989D01*
X108723Y-55989D01*
X109341Y-55960D02*
X109426Y-55989D01*
X109566Y-55989D01*
X109623Y-55960D01*
X109651Y-55932D01*
X109679Y-55876D01*
X109679Y-55820D01*
X109651Y-55764D01*
X109623Y-55735D01*
X109566Y-55707D01*
X109454Y-55679D01*
X109398Y-55651D01*
X109370Y-55623D01*
X109341Y-55567D01*
X109341Y-55510D01*
X109370Y-55454D01*
X109398Y-55426D01*
X109454Y-55398D01*
X109595Y-55398D01*
X109679Y-55426D01*
X109932Y-55989D02*
X109932Y-55595D01*
X109932Y-55398D02*
X109904Y-55426D01*
X109932Y-55454D01*
X109960Y-55426D01*
X109932Y-55398D01*
X109932Y-55454D01*
X110466Y-55989D02*
X110466Y-55398D01*
X110466Y-55960D02*
X110410Y-55989D01*
X110298Y-55989D01*
X110241Y-55960D01*
X110213Y-55932D01*
X110185Y-55876D01*
X110185Y-55707D01*
X110213Y-55651D01*
X110241Y-55623D01*
X110298Y-55595D01*
X110410Y-55595D01*
X110466Y-55623D01*
X110973Y-55960D02*
X110916Y-55989D01*
X110804Y-55989D01*
X110748Y-55960D01*
X110719Y-55904D01*
X110719Y-55679D01*
X110748Y-55623D01*
X110804Y-55595D01*
X110916Y-55595D01*
X110973Y-55623D01*
X111001Y-55679D01*
X111001Y-55735D01*
X110719Y-55792D01*
G54D12*
X84000Y-44000D03*
G54D13*
X84000Y-45000D03*
X84000Y-46000D03*
X84000Y-47000D03*
X84000Y-48000D03*
X84000Y-49000D03*
X84000Y-50000D03*
G54D12*
X96500Y-39500D03*
G54D13*
X96500Y-40500D03*
X96500Y-41500D03*
X96500Y-42500D03*
X96500Y-43500D03*
X96500Y-44500D03*
X96500Y-45500D03*
X96500Y-46500D03*
X96500Y-47500D03*
X96500Y-48500D03*
X96500Y-49500D03*
X96500Y-50500D03*
X96500Y-51500D03*
X96500Y-52500D03*
X96500Y-53500D03*
X96500Y-54500D03*
X102500Y-54500D03*
X102500Y-53500D03*
X102500Y-52500D03*
X102500Y-51500D03*
X102500Y-50500D03*
X102500Y-49500D03*
X102500Y-48500D03*
X102500Y-47500D03*
X102500Y-46500D03*
X102500Y-45500D03*
X102500Y-44500D03*
X102500Y-43500D03*
X102500Y-42500D03*
X102500Y-41500D03*
X102500Y-40500D03*
X102500Y-39500D03*
G54D12*
X105500Y-41500D03*
G54D13*
X105500Y-42500D03*
X105500Y-43500D03*
X105500Y-44500D03*
X105500Y-45500D03*
X105500Y-46500D03*
X105500Y-47500D03*
X105500Y-48500D03*
X105500Y-49500D03*
X105500Y-50500D03*
X105500Y-51500D03*
X105500Y-52500D03*
X105500Y-53500D03*
X105500Y-54500D03*
X111500Y-54500D03*
X111500Y-53500D03*
X111500Y-52500D03*
X111500Y-51500D03*
X111500Y-50500D03*
X111500Y-49500D03*
X111500Y-48500D03*
X111500Y-47500D03*
X111500Y-46500D03*
X111500Y-45500D03*
X111500Y-44500D03*
X111500Y-43500D03*
X111500Y-42500D03*
X111500Y-41500D03*
G54D12*
X104000Y-41500D03*
G54D13*
X104000Y-42500D03*
X104000Y-43500D03*
X104000Y-44500D03*
X104000Y-45500D03*
X104000Y-46500D03*
X104000Y-47500D03*
X104000Y-48500D03*
X104000Y-49500D03*
X104000Y-50500D03*
X104000Y-51500D03*
X104000Y-52500D03*
X104000Y-53500D03*
X104000Y-54500D03*
X110000Y-54500D03*
X110000Y-53500D03*
X110000Y-52500D03*
X110000Y-51500D03*
X110000Y-50500D03*
X110000Y-49500D03*
X110000Y-48500D03*
X110000Y-47500D03*
X110000Y-46500D03*
X110000Y-45500D03*
X110000Y-44500D03*
X110000Y-43500D03*
X110000Y-42500D03*
X110000Y-41500D03*
G54D12*
X86000Y-48000D03*
G54D13*
X86000Y-49000D03*
X86000Y-50000D03*
X86000Y-51000D03*
X86000Y-52000D03*
X86000Y-53000D03*
X86000Y-54000D03*
X86000Y-55000D03*
X89000Y-55000D03*
X89000Y-54000D03*
X89000Y-53000D03*
X89000Y-52000D03*
X89000Y-51000D03*
X89000Y-50000D03*
X89000Y-49000D03*
X89000Y-48000D03*
G54D12*
X86000Y-39500D03*
G54D13*
X86000Y-40500D03*
X86000Y-41500D03*
X86000Y-42500D03*
X86000Y-43500D03*
X86000Y-44500D03*
X86000Y-45500D03*
X89000Y-45500D03*
X89000Y-44500D03*
X89000Y-43500D03*
X89000Y-42500D03*
X89000Y-41500D03*
X89000Y-40500D03*
X89000Y-39500D03*
G54D12*
X92000Y-39500D03*
G54D13*
X92000Y-40500D03*
X92000Y-41500D03*
X92000Y-42500D03*
X92000Y-43500D03*
X92000Y-44500D03*
X92000Y-45500D03*
X92000Y-46500D03*
X92000Y-47500D03*
X92000Y-48500D03*
X92000Y-49500D03*
X92000Y-50500D03*
X92000Y-51500D03*
X92000Y-52500D03*
X92000Y-53500D03*
X92000Y-54500D03*
X95000Y-54500D03*
X95000Y-53500D03*
X95000Y-52500D03*
X95000Y-51500D03*
X95000Y-50500D03*
X95000Y-49500D03*
X95000Y-48500D03*
X95000Y-47500D03*
X95000Y-46500D03*
X95000Y-45500D03*
X95000Y-44500D03*
X95000Y-43500D03*
X95000Y-42500D03*
X95000Y-41500D03*
X95000Y-40500D03*
X95000Y-39500D03*
G54D14*
X110000Y-47500D02*
X108250Y-47500D01*
X87000Y-43500D02*
X86000Y-43500D01*
X87500Y-44000D02*
X87000Y-43500D01*
X87500Y-46500D02*
X87500Y-44000D01*
X88000Y-47000D02*
X87500Y-46500D01*
X107750Y-47000D02*
X88000Y-47000D01*
X108250Y-47500D02*
X107750Y-47000D01*
X102500Y-49500D02*
X101500Y-49500D01*
X99000Y-52000D02*
X89000Y-52000D01*
X101500Y-49500D02*
X99000Y-52000D01*
X86000Y-53000D02*
X87500Y-51500D01*
X94000Y-49500D02*
X95000Y-49500D01*
X92500Y-51000D02*
X94000Y-49500D01*
X90500Y-51000D02*
X92500Y-51000D01*
X90000Y-51500D02*
X90500Y-51000D01*
X87500Y-51500D02*
X90000Y-51500D01*
X95000Y-42500D02*
X93750Y-42500D01*
X89750Y-45500D02*
X89000Y-45500D01*
X90250Y-45000D02*
X89750Y-45500D01*
X93250Y-45000D02*
X90250Y-45000D01*
X93500Y-44750D02*
X93250Y-45000D01*
X93500Y-42750D02*
X93500Y-44750D01*
X93750Y-42500D02*
X93500Y-42750D01*
X95000Y-42500D02*
X95250Y-42500D01*
X100000Y-40500D02*
X102500Y-40500D01*
X98500Y-42000D02*
X100000Y-40500D01*
X95750Y-42000D02*
X98500Y-42000D01*
X95250Y-42500D02*
X95750Y-42000D01*
X92000Y-41500D02*
X91500Y-41500D01*
X83500Y-47000D02*
X84000Y-47000D01*
X83250Y-47250D02*
X83500Y-47000D01*
X83250Y-48250D02*
X83250Y-47250D01*
X83500Y-48500D02*
X83250Y-48250D01*
X84750Y-48500D02*
X83500Y-48500D01*
X85250Y-48000D02*
X84750Y-48500D01*
X85250Y-42250D02*
X85250Y-48000D01*
X85500Y-42000D02*
X85250Y-42250D01*
X91000Y-42000D02*
X85500Y-42000D01*
X91500Y-41500D02*
X91000Y-42000D01*
X95000Y-40500D02*
X94250Y-40500D01*
X84250Y-48000D02*
X84000Y-48000D01*
X84750Y-47500D02*
X84250Y-48000D01*
X84750Y-41250D02*
X84750Y-47500D01*
X85000Y-41000D02*
X84750Y-41250D01*
X93750Y-41000D02*
X85000Y-41000D01*
X94250Y-40500D02*
X93750Y-41000D01*
X96500Y-40500D02*
X96250Y-40500D01*
X83000Y-49000D02*
X84000Y-49000D01*
X82500Y-48500D02*
X83000Y-49000D01*
X82500Y-40500D02*
X82500Y-48500D01*
X83000Y-40000D02*
X82500Y-40500D01*
X95750Y-40000D02*
X83000Y-40000D01*
X96250Y-40500D02*
X95750Y-40000D01*
X86000Y-40500D02*
X84500Y-40500D01*
X84000Y-41000D02*
X84000Y-44000D01*
X84500Y-40500D02*
X84000Y-41000D01*
X86000Y-40500D02*
X89000Y-40500D01*
M02*
