M48
;DRILL file {Pcbnew (2013-07-07 BZR 4022)-stable} date 11/12/2014 2:51:32 PM
;FORMAT={-:-/ absolute / inch / decimal}
FMAT,2
INCH,TZ
T1C0.032
%
G90
G05
M72
T1
X8.4Y-4.4
X8.4Y-4.5
X8.4Y-4.6
X8.4Y-4.7
X8.4Y-4.8
X8.4Y-4.9
X8.4Y-5.
X8.6Y-3.95
X8.6Y-4.05
X8.6Y-4.15
X8.6Y-4.25
X8.6Y-4.35
X8.6Y-4.45
X8.6Y-4.55
X8.6Y-4.8
X8.6Y-4.9
X8.6Y-5.
X8.6Y-5.1
X8.6Y-5.2
X8.6Y-5.3
X8.6Y-5.4
X8.6Y-5.5
X8.9Y-3.95
X8.9Y-4.05
X8.9Y-4.15
X8.9Y-4.25
X8.9Y-4.35
X8.9Y-4.45
X8.9Y-4.55
X8.9Y-4.8
X8.9Y-4.9
X8.9Y-5.
X8.9Y-5.1
X8.9Y-5.2
X8.9Y-5.3
X8.9Y-5.4
X8.9Y-5.5
X9.2Y-3.95
X9.2Y-4.05
X9.2Y-4.15
X9.2Y-4.25
X9.2Y-4.35
X9.2Y-4.45
X9.2Y-4.55
X9.2Y-4.65
X9.2Y-4.75
X9.2Y-4.85
X9.2Y-4.95
X9.2Y-5.05
X9.2Y-5.15
X9.2Y-5.25
X9.2Y-5.35
X9.2Y-5.45
X9.5Y-3.95
X9.5Y-4.05
X9.5Y-4.15
X9.5Y-4.25
X9.5Y-4.35
X9.5Y-4.45
X9.5Y-4.55
X9.5Y-4.65
X9.5Y-4.75
X9.5Y-4.85
X9.5Y-4.95
X9.5Y-5.05
X9.5Y-5.15
X9.5Y-5.25
X9.5Y-5.35
X9.5Y-5.45
X9.65Y-3.95
X9.65Y-4.05
X9.65Y-4.15
X9.65Y-4.25
X9.65Y-4.35
X9.65Y-4.45
X9.65Y-4.55
X9.65Y-4.65
X9.65Y-4.75
X9.65Y-4.85
X9.65Y-4.95
X9.65Y-5.05
X9.65Y-5.15
X9.65Y-5.25
X9.65Y-5.35
X9.65Y-5.45
X10.25Y-3.95
X10.25Y-4.05
X10.25Y-4.15
X10.25Y-4.25
X10.25Y-4.35
X10.25Y-4.45
X10.25Y-4.55
X10.25Y-4.65
X10.25Y-4.75
X10.25Y-4.85
X10.25Y-4.95
X10.25Y-5.05
X10.25Y-5.15
X10.25Y-5.25
X10.25Y-5.35
X10.25Y-5.45
X10.4Y-4.15
X10.4Y-4.25
X10.4Y-4.35
X10.4Y-4.45
X10.4Y-4.55
X10.4Y-4.65
X10.4Y-4.75
X10.4Y-4.85
X10.4Y-4.95
X10.4Y-5.05
X10.4Y-5.15
X10.4Y-5.25
X10.4Y-5.35
X10.4Y-5.45
X10.55Y-4.15
X10.55Y-4.25
X10.55Y-4.35
X10.55Y-4.45
X10.55Y-4.55
X10.55Y-4.65
X10.55Y-4.75
X10.55Y-4.85
X10.55Y-4.95
X10.55Y-5.05
X10.55Y-5.15
X10.55Y-5.25
X10.55Y-5.35
X10.55Y-5.45
X11.Y-4.15
X11.Y-4.25
X11.Y-4.35
X11.Y-4.45
X11.Y-4.55
X11.Y-4.65
X11.Y-4.75
X11.Y-4.85
X11.Y-4.95
X11.Y-5.05
X11.Y-5.15
X11.Y-5.25
X11.Y-5.35
X11.Y-5.45
X11.15Y-4.15
X11.15Y-4.25
X11.15Y-4.35
X11.15Y-4.45
X11.15Y-4.55
X11.15Y-4.65
X11.15Y-4.75
X11.15Y-4.85
X11.15Y-4.95
X11.15Y-5.05
X11.15Y-5.15
X11.15Y-5.25
X11.15Y-5.35
X11.15Y-5.45
T0
M30
